<?xml version="1.0" encoding="UTF-8"?>
<!DOCTYPE svg PUBLIC "-//W3C//DTD SVG 1.1//EN" "http://www.w3.org/Graphics/SVG/1.1/DTD/svg11.dtd">
<svg width="283mm" height="172mm" viewBox="0 0 28300 17200" version="1.1" xmlns="http://www.w3.org/2000/svg" xmlns:xlink="http://www.w3.org/1999/xlink" stroke-width="28.222" stroke-linejoin="round" xml:space="preserve">
 <path fill="rgb(255,255,255)" stroke="none" d="M 14146,17160 L 0,17160 0,0 28291,0 28291,17160 14146,17160 Z"/>
 <path fill="none" stroke="rgb(179,179,179)" stroke-linejoin="round" d="M 13341,16170 L 2488,16170 2488,2994 24193,2994 24193,16170 13341,16170 Z"/>
 <path fill="none" stroke="rgb(179,179,179)" stroke-linejoin="round" d="M 24193,16169 L 2488,16169"/>
 <path fill="none" stroke="rgb(179,179,179)" stroke-linejoin="round" d="M 24193,13972 L 2488,13972"/>
 <path fill="none" stroke="rgb(179,179,179)" stroke-linejoin="round" d="M 24193,11776 L 2488,11776"/>
 <path fill="none" stroke="rgb(179,179,179)" stroke-linejoin="round" d="M 24193,9580 L 2488,9580"/>
 <path fill="none" stroke="rgb(179,179,179)" stroke-linejoin="round" d="M 24193,7385 L 2488,7385"/>
 <path fill="none" stroke="rgb(179,179,179)" stroke-linejoin="round" d="M 24193,5189 L 2488,5189"/>
 <path fill="none" stroke="rgb(179,179,179)" stroke-linejoin="round" d="M 24193,2992 L 2488,2992"/>
 <path fill="none" stroke="rgb(179,179,179)" stroke-linejoin="round" d="M 2488,16319 L 2488,16169"/>
 <path fill="none" stroke="rgb(179,179,179)" stroke-linejoin="round" d="M 2488,16319 L 2488,16169"/>
 <path fill="none" stroke="rgb(179,179,179)" stroke-linejoin="round" d="M 4658,16319 L 4658,16169"/>
 <path fill="none" stroke="rgb(179,179,179)" stroke-linejoin="round" d="M 4658,16319 L 4658,16169"/>
 <path fill="none" stroke="rgb(179,179,179)" stroke-linejoin="round" d="M 6829,16319 L 6829,16169"/>
 <path fill="none" stroke="rgb(179,179,179)" stroke-linejoin="round" d="M 6829,16319 L 6829,16169"/>
 <path fill="none" stroke="rgb(179,179,179)" stroke-linejoin="round" d="M 8999,16319 L 8999,16169"/>
 <path fill="none" stroke="rgb(179,179,179)" stroke-linejoin="round" d="M 8999,16319 L 8999,16169"/>
 <path fill="none" stroke="rgb(179,179,179)" stroke-linejoin="round" d="M 11170,16319 L 11170,16169"/>
 <path fill="none" stroke="rgb(179,179,179)" stroke-linejoin="round" d="M 11170,16319 L 11170,16169"/>
 <path fill="none" stroke="rgb(179,179,179)" stroke-linejoin="round" d="M 13341,16319 L 13341,16169"/>
 <path fill="none" stroke="rgb(179,179,179)" stroke-linejoin="round" d="M 13341,16319 L 13341,16169"/>
 <path fill="none" stroke="rgb(179,179,179)" stroke-linejoin="round" d="M 15510,16319 L 15510,16169"/>
 <path fill="none" stroke="rgb(179,179,179)" stroke-linejoin="round" d="M 15510,16319 L 15510,16169"/>
 <path fill="none" stroke="rgb(179,179,179)" stroke-linejoin="round" d="M 17681,16319 L 17681,16169"/>
 <path fill="none" stroke="rgb(179,179,179)" stroke-linejoin="round" d="M 17681,16319 L 17681,16169"/>
 <path fill="none" stroke="rgb(179,179,179)" stroke-linejoin="round" d="M 19851,16319 L 19851,16169"/>
 <path fill="none" stroke="rgb(179,179,179)" stroke-linejoin="round" d="M 19851,16319 L 19851,16169"/>
 <path fill="none" stroke="rgb(179,179,179)" stroke-linejoin="round" d="M 22022,16319 L 22022,16169"/>
 <path fill="none" stroke="rgb(179,179,179)" stroke-linejoin="round" d="M 22022,16319 L 22022,16169"/>
 <path fill="none" stroke="rgb(179,179,179)" stroke-linejoin="round" d="M 24193,16319 L 24193,16169"/>
 <path fill="none" stroke="rgb(179,179,179)" stroke-linejoin="round" d="M 24193,16319 L 24193,16169"/>
 <path fill="none" stroke="rgb(179,179,179)" stroke-linejoin="round" d="M 2488,16169 L 24193,16169"/>
 <path fill="none" stroke="rgb(179,179,179)" stroke-linejoin="round" d="M 2338,16169 L 2488,16169"/>
 <path fill="none" stroke="rgb(179,179,179)" stroke-linejoin="round" d="M 2338,16169 L 2488,16169"/>
 <path fill="none" stroke="rgb(179,179,179)" stroke-linejoin="round" d="M 2338,13972 L 2488,13972"/>
 <path fill="none" stroke="rgb(179,179,179)" stroke-linejoin="round" d="M 2338,13972 L 2488,13972"/>
 <path fill="none" stroke="rgb(179,179,179)" stroke-linejoin="round" d="M 2338,11776 L 2488,11776"/>
 <path fill="none" stroke="rgb(179,179,179)" stroke-linejoin="round" d="M 2338,11776 L 2488,11776"/>
 <path fill="none" stroke="rgb(179,179,179)" stroke-linejoin="round" d="M 2338,9580 L 2488,9580"/>
 <path fill="none" stroke="rgb(179,179,179)" stroke-linejoin="round" d="M 2338,9580 L 2488,9580"/>
 <path fill="none" stroke="rgb(179,179,179)" stroke-linejoin="round" d="M 2338,7385 L 2488,7385"/>
 <path fill="none" stroke="rgb(179,179,179)" stroke-linejoin="round" d="M 2338,7385 L 2488,7385"/>
 <path fill="none" stroke="rgb(179,179,179)" stroke-linejoin="round" d="M 2338,5189 L 2488,5189"/>
 <path fill="none" stroke="rgb(179,179,179)" stroke-linejoin="round" d="M 2338,5189 L 2488,5189"/>
 <path fill="none" stroke="rgb(179,179,179)" stroke-linejoin="round" d="M 2338,2992 L 2488,2992"/>
 <path fill="none" stroke="rgb(179,179,179)" stroke-linejoin="round" d="M 2338,2992 L 2488,2992"/>
 <path fill="none" stroke="rgb(179,179,179)" stroke-linejoin="round" d="M 2488,16169 L 2488,2992"/>
 <path fill="rgb(0,69,134)" stroke="none" d="M 22293,16169 L 22836,16169 22836,2992 22293,2992 22293,16169 Z"/>
 <path fill="rgb(0,69,134)" stroke="none" d="M 20123,16169 L 20665,16169 20665,2992 20123,2992 20123,16169 Z"/>
 <path fill="rgb(0,69,134)" stroke="none" d="M 17952,16169 L 18495,16169 18495,7361 17952,7361 17952,16169 Z"/>
 <path fill="rgb(0,69,134)" stroke="none" d="M 15781,16169 L 16324,16169 16324,10291 15781,10291 15781,16169 Z"/>
 <path fill="rgb(0,69,134)" stroke="none" d="M 13612,16169 L 14153,16169 14153,9808 13612,9808 13612,16169 Z"/>
 <path fill="rgb(0,69,134)" stroke="none" d="M 11441,16169 L 11984,16169 11984,10331 11441,10331 11441,16169 Z"/>
 <path fill="rgb(0,69,134)" stroke="none" d="M 9271,16169 L 9813,16169 9813,10634 9271,10634 9271,16169 Z"/>
 <path fill="rgb(0,69,134)" stroke="none" d="M 7100,16169 L 7643,16169 7643,10594 7100,10594 7100,16169 Z"/>
 <path fill="rgb(0,69,134)" stroke="none" d="M 4929,16169 L 5472,16169 5472,10677 4929,10677 4929,16169 Z"/>
 <path fill="rgb(0,69,134)" stroke="none" d="M 2759,16169 L 3301,16169 3301,11055 2759,11055 2759,16169 Z"/>
 <path fill="rgb(255,66,14)" stroke="none" d="M 22836,16169 L 23379,16169 23379,2992 22836,2992 22836,16169 Z"/>
 <path fill="rgb(255,66,14)" stroke="none" d="M 20665,16169 L 21208,16169 21208,2992 20665,2992 20665,16169 Z"/>
 <path fill="rgb(255,66,14)" stroke="none" d="M 18495,16169 L 19037,16169 19037,8570 18495,8570 18495,16169 Z"/>
 <path fill="rgb(255,66,14)" stroke="none" d="M 16324,16169 L 16867,16169 16867,11353 16324,11353 16324,16169 Z"/>
 <path fill="rgb(255,66,14)" stroke="none" d="M 14153,16169 L 14696,16169 14696,12941 14153,12941 14153,16169 Z"/>
 <path fill="rgb(255,66,14)" stroke="none" d="M 11984,16169 L 12527,16169 12527,13103 11984,13103 11984,16169 Z"/>
 <path fill="rgb(255,66,14)" stroke="none" d="M 9813,16169 L 10356,16169 10356,13287 9813,13287 9813,16169 Z"/>
 <path fill="rgb(255,66,14)" stroke="none" d="M 7643,16169 L 8185,16169 8185,13234 7643,13234 7643,16169 Z"/>
 <path fill="rgb(255,66,14)" stroke="none" d="M 5472,16169 L 6015,16169 6015,13344 5472,13344 5472,16169 Z"/>
 <path fill="rgb(255,66,14)" stroke="none" d="M 3301,16169 L 3844,16169 3844,13475 3301,13475 3301,16169 Z"/>
 <path fill="rgb(255,211,32)" stroke="none" d="M 23379,16169 L 23921,16169 23921,5521 23379,5521 23379,16169 Z"/>
 <path fill="rgb(255,211,32)" stroke="none" d="M 21208,16169 L 21751,16169 21751,3890 21208,3890 21208,16169 Z"/>
 <path fill="rgb(255,211,32)" stroke="none" d="M 19037,16169 L 19580,16169 19580,11663 19037,11663 19037,16169 Z"/>
 <path fill="rgb(255,211,32)" stroke="none" d="M 16867,16169 L 17409,16169 17409,13945 16867,13945 16867,16169 Z"/>
 <path fill="rgb(255,211,32)" stroke="none" d="M 14696,16169 L 15239,16169 15239,13110 14696,13110 14696,16169 Z"/>
 <path fill="rgb(255,211,32)" stroke="none" d="M 12527,16169 L 13069,16169 13069,13399 12527,13399 12527,16169 Z"/>
 <path fill="rgb(255,211,32)" stroke="none" d="M 10356,16169 L 10899,16169 10899,13465 10356,13465 10356,16169 Z"/>
 <path fill="rgb(255,211,32)" stroke="none" d="M 8185,16169 L 8728,16169 8728,13735 8185,13735 8185,16169 Z"/>
 <path fill="rgb(255,211,32)" stroke="none" d="M 6015,16169 L 6557,16169 6557,13856 6015,13856 6015,16169 Z"/>
 <path fill="rgb(255,211,32)" stroke="none" d="M 3844,16169 L 4387,16169 4387,14075 3844,14075 3844,16169 Z"/>
 <text class="TextShape"><tspan class="TextParagraph" font-family="Liberation Sans, sans-serif" font-size="353px" font-weight="400"><tspan class="TextPosition" x="3017" y="16737"><tspan fill="rgb(0,0,0)" stroke="none">Pottery</tspan></tspan></tspan></text>
 <text class="TextShape"><tspan class="TextParagraph" font-family="Liberation Sans, sans-serif" font-size="353px" font-weight="400"><tspan class="TextPosition" x="5266" y="16737"><tspan fill="rgb(0,0,0)" stroke="none">newlib</tspan></tspan></tspan></text>
 <text class="TextShape"><tspan class="TextParagraph" font-family="Liberation Sans, sans-serif" font-size="353px" font-weight="400"><tspan class="TextPosition" x="6776" y="16737"><tspan fill="rgb(0,0,0)" stroke="none">DragonFlyBSD</tspan></tspan></tspan></text>
 <text class="TextShape"><tspan class="TextParagraph" font-family="Liberation Sans, sans-serif" font-size="353px" font-weight="400"><tspan class="TextPosition" x="9463" y="16737"><tspan fill="rgb(0,0,0)" stroke="none">NetBSD</tspan></tspan></tspan></text>
 <text class="TextShape"><tspan class="TextParagraph" font-family="Liberation Sans, sans-serif" font-size="353px" font-weight="400"><tspan class="TextPosition" x="11487" y="16737"><tspan fill="rgb(0,0,0)" stroke="none">OpenBSD</tspan></tspan></tspan></text>
 <text class="TextShape"><tspan class="TextParagraph" font-family="Liberation Sans, sans-serif" font-size="353px" font-weight="400"><tspan class="TextPosition" x="13725" y="16737"><tspan fill="rgb(0,0,0)" stroke="none">FreeBSD</tspan></tspan></tspan></text>
 <text class="TextShape"><tspan class="TextParagraph" font-family="Liberation Sans, sans-serif" font-size="353px" font-weight="400"><tspan class="TextPosition" x="16239" y="16737"><tspan fill="rgb(0,0,0)" stroke="none">glibc</tspan></tspan></tspan></text>
 <text class="TextShape"><tspan class="TextParagraph" font-family="Liberation Sans, sans-serif" font-size="353px" font-weight="400"><tspan class="TextPosition" x="18383" y="16737"><tspan fill="rgb(0,0,0)" stroke="none">Wine</tspan></tspan></tspan></text>
 <text class="TextShape"><tspan class="TextParagraph" font-family="Liberation Sans, sans-serif" font-size="353px" font-weight="400"><tspan class="TextPosition" x="20461" y="16737"><tspan fill="rgb(0,0,0)" stroke="none">uClibc</tspan></tspan></tspan></text>
 <text class="TextShape"><tspan class="TextParagraph" font-family="Liberation Sans, sans-serif" font-size="353px" font-weight="400"><tspan class="TextPosition" x="22737" y="16737"><tspan fill="rgb(0,0,0)" stroke="none">musl</tspan></tspan></tspan></text>
 <text class="TextShape"><tspan class="TextParagraph" font-family="Liberation Sans, sans-serif" font-size="353px" font-weight="400"><tspan class="TextPosition" x="1577" y="16290"><tspan fill="rgb(0,0,0)" stroke="none">0.00</tspan></tspan></tspan></text>
 <text class="TextShape"><tspan class="TextParagraph" font-family="Liberation Sans, sans-serif" font-size="353px" font-weight="400"><tspan class="TextPosition" x="1577" y="14093"><tspan fill="rgb(0,0,0)" stroke="none">0.50</tspan></tspan></tspan></text>
 <text class="TextShape"><tspan class="TextParagraph" font-family="Liberation Sans, sans-serif" font-size="353px" font-weight="400"><tspan class="TextPosition" x="1577" y="11897"><tspan fill="rgb(0,0,0)" stroke="none">1.00</tspan></tspan></tspan></text>
 <text class="TextShape"><tspan class="TextParagraph" font-family="Liberation Sans, sans-serif" font-size="353px" font-weight="400"><tspan class="TextPosition" x="1577" y="9701"><tspan fill="rgb(0,0,0)" stroke="none">1.50</tspan></tspan></tspan></text>
 <text class="TextShape"><tspan class="TextParagraph" font-family="Liberation Sans, sans-serif" font-size="353px" font-weight="400"><tspan class="TextPosition" x="1577" y="7505"><tspan fill="rgb(0,0,0)" stroke="none">2.00</tspan></tspan></tspan></text>
 <text class="TextShape"><tspan class="TextParagraph" font-family="Liberation Sans, sans-serif" font-size="353px" font-weight="400"><tspan class="TextPosition" x="1577" y="5309"><tspan fill="rgb(0,0,0)" stroke="none">2.50</tspan></tspan></tspan></text>
 <text class="TextShape"><tspan class="TextParagraph" font-family="Liberation Sans, sans-serif" font-size="353px" font-weight="400"><tspan class="TextPosition" x="1577" y="3112"><tspan fill="rgb(0,0,0)" stroke="none">3.00</tspan></tspan></tspan></text>
 <text class="TextShape"><tspan class="TextParagraph" font-family="Liberation Sans, sans-serif" font-size="564px" font-weight="400"><tspan class="TextPosition" x="8563" y="1390"><tspan fill="rgb(0,0,0)" stroke="none">Time to sort 10,000,000 integers with qsort()</tspan></tspan></tspan></text>
 <text class="TextShape"><tspan class="TextParagraph" font-family="Liberation Sans, sans-serif" font-size="388px" font-weight="400"><tspan class="TextPosition" x="12811" y="2152"><tspan fill="rgb(0,0,0)" stroke="none">(lower is better)</tspan></tspan></tspan></text>
 <path fill="rgb(0,69,134)" stroke="none" d="M 24980,8187 L 24874,8187 24874,7976 25085,7976 25085,8187 24980,8187 Z"/>
 <path fill="rgb(255,66,14)" stroke="none" d="M 24980,8684 L 24874,8684 24874,8474 25085,8474 25085,8684 24980,8684 Z"/>
 <path fill="rgb(255,211,32)" stroke="none" d="M 24980,9182 L 24874,9182 24874,8971 25085,8971 25085,9182 24980,9182 Z"/>
 <text class="TextShape"><tspan class="TextParagraph" font-family="Liberation Sans, sans-serif" font-size="353px" font-weight="400"><tspan class="TextPosition" x="25185" y="8201"><tspan fill="rgb(0,0,0)" stroke="none">Random</tspan></tspan></tspan></text>
 <text class="TextShape"><tspan class="TextParagraph" font-family="Liberation Sans, sans-serif" font-size="353px" font-weight="400"><tspan class="TextPosition" x="25185" y="8698"><tspan fill="rgb(0,0,0)" stroke="none">Many Duplicates</tspan></tspan></tspan></text>
 <text class="TextShape"><tspan class="TextParagraph" font-family="Liberation Sans, sans-serif" font-size="353px" font-weight="400"><tspan class="TextPosition" x="25185" y="9196"><tspan fill="rgb(0,0,0)" stroke="none">Mostly Pre-Sorted</tspan></tspan></tspan></text>
 <text class="TextShape" transform="rotate(-90 837 10414)"><tspan class="TextParagraph" font-family="Liberation Sans, sans-serif" font-size="318px" font-weight="400"><tspan class="TextPosition" x="837" y="10414"><tspan fill="rgb(0,0,0)" stroke="none">seconds</tspan></tspan></tspan></text>
</svg>